<svg id="Layer_1" data-name="Layer 1" xmlns="http://www.w3.org/2000/svg" viewBox="0 0 661 182.36"><defs><style>.cls-1{fill:#fff;}.cls-2{fill:none;stroke:#fff;stroke-miterlimit:10;stroke-width:5px;}</style></defs><title>rwahs-white</title><path class="cls-1" d="M22.74,102.61V61.91H39.86A10.48,10.48,0,0,1,44.68,63a12.73,12.73,0,0,1,3.79,2.92A13.45,13.45,0,0,1,51,70a12.82,12.82,0,0,1,.88,4.64A13.86,13.86,0,0,1,51.19,79a13.26,13.26,0,0,1-1.83,3.67,11.08,11.08,0,0,1-2.82,2.75,10,10,0,0,1-3.71,1.52l9.93,15.71H48.25l-9.53-15h-12v15h-4Zm4-18.58H40a6.76,6.76,0,0,0,3.22-.77,7.69,7.69,0,0,0,2.48-2.09,10.18,10.18,0,0,0,1.6-3,10.71,10.71,0,0,0,.57-3.5,9.93,9.93,0,0,0-2.43-6.48,8.46,8.46,0,0,0-2.62-2,7.09,7.09,0,0,0-3.17-.75H26.74V84Z" transform="translate(-14.16 -60.76)"/><path class="cls-1" d="M71,103.18A14,14,0,0,1,65.08,102a14.57,14.57,0,0,1-4.65-3.35,15.21,15.21,0,0,1-3.05-4.93,16.25,16.25,0,0,1-1.08-5.9,16,16,0,0,1,1.11-6,15.64,15.64,0,0,1,3.08-4.93,15,15,0,0,1,4.65-3.38A13.64,13.64,0,0,1,71,72.23a13.84,13.84,0,0,1,5.91,1.26,14.89,14.89,0,0,1,4.68,3.38,15.65,15.65,0,0,1,3.08,4.93,16,16,0,0,1,1.11,6,16.27,16.27,0,0,1-1.08,5.9,15.22,15.22,0,0,1-3.05,4.93A14.5,14.5,0,0,1,77,102,14.25,14.25,0,0,1,71,103.18ZM60.23,87.82a12.52,12.52,0,0,0,.86,4.67,12.69,12.69,0,0,0,2.31,3.78,10.44,10.44,0,0,0,3.42,2.55,9.8,9.8,0,0,0,4.19.92,9.56,9.56,0,0,0,4.19-.95,11.15,11.15,0,0,0,3.45-2.58A12.3,12.3,0,0,0,81,92.41,13.26,13.26,0,0,0,81,83a12.24,12.24,0,0,0-2.34-3.84,11.14,11.14,0,0,0-3.45-2.58A9.56,9.56,0,0,0,71,75.67a9.38,9.38,0,0,0-4.17.95,11,11,0,0,0-3.42,2.61,12.59,12.59,0,0,0-2.34,3.87A13,13,0,0,0,60.23,87.82Z" transform="translate(-14.16 -60.76)"/><path class="cls-1" d="M93,111.78l0.88,0.09,0.83,0a3.83,3.83,0,0,0,1.63-.29,3,3,0,0,0,1.17-1.26,20.78,20.78,0,0,0,1.28-2.81q0.71-1.84,2-4.93l-13-29.87h4l11,26.26,10.21-26.26h3.71l-15.41,38.53a7,7,0,0,1-2.08,2.9,5.94,5.94,0,0,1-4,1.23l-1.08,0q-0.51,0-1.26-.14v-3.44Z" transform="translate(-14.16 -60.76)"/><path class="cls-1" d="M128.94,103.18a10.46,10.46,0,0,1-3.91-.72,9.84,9.84,0,0,1-3.14-2,8.93,8.93,0,0,1-2.82-6.59,7.38,7.38,0,0,1,.91-3.61,8.73,8.73,0,0,1,2.57-2.87,12.55,12.55,0,0,1,3.94-1.86,18.07,18.07,0,0,1,5-.66,27.35,27.35,0,0,1,4.62.4,20,20,0,0,1,4.17,1.15V83.75a8.69,8.69,0,0,0-2.23-6.28,8.13,8.13,0,0,0-6.16-2.32,13.06,13.06,0,0,0-4.68.92,22.54,22.54,0,0,0-4.85,2.64L121,76.12q5.76-3.9,11.18-3.9,5.59,0,8.79,3.15t3.2,8.71V97.57a1.35,1.35,0,0,0,1.43,1.6v3.44a9.2,9.2,0,0,1-1.48.17,3.33,3.33,0,0,1-2.31-.75,2.8,2.8,0,0,1-.88-2.06l-0.11-2.35a13.48,13.48,0,0,1-5.16,4.13A15.84,15.84,0,0,1,128.94,103.18Zm0.91-3a13.35,13.35,0,0,0,5.56-1.15,9.1,9.1,0,0,0,3.85-3A3.57,3.57,0,0,0,140,94.9a2.87,2.87,0,0,0,.26-1.12V88.91a23.8,23.8,0,0,0-4-1.15,22.47,22.47,0,0,0-4.25-.4,11.79,11.79,0,0,0-6.68,1.72,5.24,5.24,0,0,0-2.57,4.53,6.2,6.2,0,0,0,.54,2.58,6.53,6.53,0,0,0,1.48,2.09,6.92,6.92,0,0,0,2.25,1.4A7.57,7.57,0,0,0,129.85,100.2Z" transform="translate(-14.16 -60.76)"/><path class="cls-1" d="M152.73,60.76h3.88V95.85a3.6,3.6,0,0,0,.91,2.61,3.4,3.4,0,0,0,2.57.95,7.72,7.72,0,0,0,1.48-.17,9.7,9.7,0,0,0,1.6-.46l0.68,3.15a12.71,12.71,0,0,1-2.65.75,15.42,15.42,0,0,1-2.71.29,5.3,5.3,0,0,1-5.76-5.79V60.76Z" transform="translate(-14.16 -60.76)"/><path class="cls-1" d="M195,62.19h3.77l5.71,14.45,5.76-14.45H214l-7.08,17.37L214.7,98l14.67-36.06h4.34l-17.18,40.71H213l-8.5-20.12-8.56,20.12h-3.48L175.33,61.91h4.28L194.33,98l7.7-18.4Z" transform="translate(-14.16 -60.76)"/><path class="cls-1" d="M247.8,103.18a14.24,14.24,0,0,1-6-1.23,14.6,14.6,0,0,1-4.71-3.38,15.7,15.7,0,0,1-3.11-5,16.18,16.18,0,0,1-1.11-6A15.82,15.82,0,0,1,234,81.66a15.37,15.37,0,0,1,3.08-4.87,14.63,14.63,0,0,1,4.71-3.33,14.43,14.43,0,0,1,16.55,3.35,15.79,15.79,0,0,1,4.11,10.72v0.92a2.33,2.33,0,0,1-.06.63H237a12.63,12.63,0,0,0,1.11,4.44A12.2,12.2,0,0,0,240.5,97a10.84,10.84,0,0,0,3.4,2.32,10.11,10.11,0,0,0,4.08.83,10.5,10.5,0,0,0,2.85-.4,11.5,11.5,0,0,0,2.62-1.09A9.74,9.74,0,0,0,255.62,97a7.26,7.26,0,0,0,1.48-2.21l3.37,0.92a9.94,9.94,0,0,1-1.94,3,13.55,13.55,0,0,1-2.91,2.35,14.21,14.21,0,0,1-3.65,1.55A15.78,15.78,0,0,1,247.8,103.18Zm11-17.08a12.1,12.1,0,0,0-1.11-4.39,12,12,0,0,0-2.4-3.41,10.63,10.63,0,0,0-3.37-2.24,10.44,10.44,0,0,0-4.08-.8,10.65,10.65,0,0,0-4.11.8,10.54,10.54,0,0,0-3.4,2.24A11,11,0,0,0,238,81.74a13.08,13.08,0,0,0-1.06,4.36h21.86Z" transform="translate(-14.16 -60.76)"/><path class="cls-1" d="M278.33,103.18a20.6,20.6,0,0,1-6.79-1.15,16.28,16.28,0,0,1-5.71-3.33l1.77-2.64a19.31,19.31,0,0,0,5.11,3.1,14.92,14.92,0,0,0,5.56,1A10,10,0,0,0,284,98.74a4.74,4.74,0,0,0,2.14-4.16,3.62,3.62,0,0,0-.57-2.09A5,5,0,0,0,283.89,91a13.16,13.16,0,0,0-2.8-1.12q-1.68-.49-3.91-1-2.57-.63-4.45-1.26a13.55,13.55,0,0,1-3.11-1.43,5.15,5.15,0,0,1-1.83-2,6.47,6.47,0,0,1-.6-3,8.52,8.52,0,0,1,.88-4,8.05,8.05,0,0,1,2.4-2.84A10.86,10.86,0,0,1,274,72.8a15.77,15.77,0,0,1,4.31-.57,16.62,16.62,0,0,1,6.22,1.12,12.3,12.3,0,0,1,4.51,3l-1.88,2.29a10.45,10.45,0,0,0-4-2.58,14.35,14.35,0,0,0-4.94-.86,12.24,12.24,0,0,0-2.85.31,6.86,6.86,0,0,0-2.31,1,4.93,4.93,0,0,0-1.57,1.75,5.19,5.19,0,0,0-.57,2.49,4.12,4.12,0,0,0,.4,1.95,3.41,3.41,0,0,0,1.31,1.29,10.6,10.6,0,0,0,2.31,1q1.4,0.43,3.4.89,2.85,0.69,5,1.38a15.77,15.77,0,0,1,3.62,1.6,6.32,6.32,0,0,1,2.2,2.24,6.46,6.46,0,0,1,.74,3.21,7.8,7.8,0,0,1-3.14,6.54Q283.63,103.18,278.33,103.18Z" transform="translate(-14.16 -60.76)"/><path class="cls-1" d="M310.51,101.18l-1,.46q-0.66.29-1.51,0.57a17.35,17.35,0,0,1-1.94.52,11.05,11.05,0,0,1-2.28.23,8.25,8.25,0,0,1-2.4-.34,5.56,5.56,0,0,1-2-1.06A5.21,5.21,0,0,1,298,99.74a5.85,5.85,0,0,1-.51-2.52V75.84h-4.11v-3.1h4.11V62.65h3.88V72.74h6.85v3.1h-6.85V96.13a3.1,3.1,0,0,0,1.17,2.44,4,4,0,0,0,2.42.77,7.25,7.25,0,0,0,2.91-.54,12.79,12.79,0,0,0,1.6-.77Z" transform="translate(-14.16 -60.76)"/><path class="cls-1" d="M327.46,103.18a14.24,14.24,0,0,1-6-1.23,14.6,14.6,0,0,1-4.71-3.38,15.7,15.7,0,0,1-3.11-5,16.18,16.18,0,0,1-1.11-6,15.82,15.82,0,0,1,1.11-5.93,15.37,15.37,0,0,1,3.08-4.87,14.63,14.63,0,0,1,4.71-3.33A14.43,14.43,0,0,1,338,76.81a15.79,15.79,0,0,1,4.11,10.72v0.92a2.36,2.36,0,0,1-.06.63H316.62a12.63,12.63,0,0,0,1.11,4.44A12.2,12.2,0,0,0,320.16,97a10.84,10.84,0,0,0,3.4,2.32,10.11,10.11,0,0,0,4.08.83,10.5,10.5,0,0,0,2.85-.4,11.5,11.5,0,0,0,2.62-1.09A9.74,9.74,0,0,0,335.28,97a7.26,7.26,0,0,0,1.48-2.21l3.37,0.92a9.94,9.94,0,0,1-1.94,3,13.55,13.55,0,0,1-2.91,2.35,14.21,14.21,0,0,1-3.65,1.55A15.78,15.78,0,0,1,327.46,103.18Zm11-17.08a12.1,12.1,0,0,0-1.11-4.39,12,12,0,0,0-2.4-3.41,10.63,10.63,0,0,0-3.37-2.24,10.44,10.44,0,0,0-4.08-.8,10.65,10.65,0,0,0-4.11.8A10.54,10.54,0,0,0,320,78.3a11,11,0,0,0-2.34,3.44,13.08,13.08,0,0,0-1.06,4.36h21.86Z" transform="translate(-14.16 -60.76)"/><path class="cls-1" d="M363,76.18a12.17,12.17,0,0,0-6.85,2.18A11,11,0,0,0,352,84v18.58h-3.88V72.74h3.65v7.17a13.56,13.56,0,0,1,4.45-5.39,10.28,10.28,0,0,1,6-1.95,4,4,0,0,1,.74.06v3.55Z" transform="translate(-14.16 -60.76)"/><path class="cls-1" d="M393.14,102.61h-3.88V85.93q0-5.33-1.57-7.74a5.35,5.35,0,0,0-4.82-2.41,9.85,9.85,0,0,0-3.42.63,11.54,11.54,0,0,0-3.17,1.78,13.6,13.6,0,0,0-2.6,2.72A10.67,10.67,0,0,0,372,84.32v18.29h-3.88V72.74h3.54v6.77a14,14,0,0,1,5.22-5.27,14.27,14.27,0,0,1,7.39-2,8.73,8.73,0,0,1,4.17.92,7.12,7.12,0,0,1,2.74,2.58,11.93,11.93,0,0,1,1.48,4.07,28.68,28.68,0,0,1,.46,5.33v17.49Z" transform="translate(-14.16 -60.76)"/><path class="cls-1" d="M427.55,61.91h3.37l16.83,40.71h-4.22l-5.25-12.73h-18.2l-5.19,12.73H410.6Zm9.81,24.82L429.2,66.61l-8.27,20.12h16.43Z" transform="translate(-14.16 -60.76)"/><path class="cls-1" d="M461.39,103.18q-4.85,0-7.22-3.24t-2.37-9.66V72.74h3.88V89.6q0,10.15,6.91,10.15a10.2,10.2,0,0,0,3.37-.57A10.54,10.54,0,0,0,469,97.51a13.43,13.43,0,0,0,2.51-2.58,13,13,0,0,0,1.8-3.38V72.74h3.88V97.57q0,1.61,1.37,1.6v3.44a7.07,7.07,0,0,1-1.11.11h-0.6a3.09,3.09,0,0,1-2.23-1,3.47,3.47,0,0,1-.86-2.47V95.85a13.87,13.87,0,0,1-5.28,5.42A14,14,0,0,1,461.39,103.18Z" transform="translate(-14.16 -60.76)"/><path class="cls-1" d="M495.85,103.18a20.61,20.61,0,0,1-6.79-1.15,16.28,16.28,0,0,1-5.71-3.33l1.77-2.64a19.29,19.29,0,0,0,5.11,3.1,14.92,14.92,0,0,0,5.56,1,10,10,0,0,0,5.73-1.46,4.74,4.74,0,0,0,2.14-4.16,3.62,3.62,0,0,0-.57-2.09A5,5,0,0,0,501.42,91a13.17,13.17,0,0,0-2.8-1.12q-1.68-.49-3.91-1-2.57-.63-4.45-1.26a13.54,13.54,0,0,1-3.11-1.43,5.16,5.16,0,0,1-1.83-2,6.47,6.47,0,0,1-.6-3,8.53,8.53,0,0,1,.88-4,8.06,8.06,0,0,1,2.4-2.84,10.86,10.86,0,0,1,3.54-1.69,15.76,15.76,0,0,1,4.31-.57,16.63,16.63,0,0,1,6.22,1.12,12.3,12.3,0,0,1,4.51,3l-1.88,2.29a10.44,10.44,0,0,0-4-2.58,14.36,14.36,0,0,0-4.94-.86,12.24,12.24,0,0,0-2.85.31,6.86,6.86,0,0,0-2.31,1A4.93,4.93,0,0,0,489,78.22a5.19,5.19,0,0,0-.57,2.49,4.12,4.12,0,0,0,.4,1.95,3.4,3.4,0,0,0,1.31,1.29,10.61,10.61,0,0,0,2.31,1q1.4,0.43,3.39.89,2.85,0.69,5,1.38a15.76,15.76,0,0,1,3.62,1.6A6.33,6.33,0,0,1,506.7,91a6.48,6.48,0,0,1,.74,3.21,7.8,7.8,0,0,1-3.14,6.54Q501.16,103.18,495.85,103.18Z" transform="translate(-14.16 -60.76)"/><path class="cls-1" d="M528,101.18l-1,.46q-0.66.29-1.51,0.57a17.45,17.45,0,0,1-1.94.52,11,11,0,0,1-2.28.23,8.25,8.25,0,0,1-2.4-.34,5.58,5.58,0,0,1-2-1.06,5.21,5.21,0,0,1-1.37-1.81,5.84,5.84,0,0,1-.51-2.52V75.84h-4.11v-3.1H515V62.65h3.88V72.74h6.85v3.1h-6.85V96.13a3.1,3.1,0,0,0,1.17,2.44,4,4,0,0,0,2.43.77,7.25,7.25,0,0,0,2.91-.54A12.79,12.79,0,0,0,527,98Z" transform="translate(-14.16 -60.76)"/><path class="cls-1" d="M547.72,76.18a12.17,12.17,0,0,0-6.85,2.18A11,11,0,0,0,536.77,84v18.58h-3.88V72.74h3.65v7.17A13.57,13.57,0,0,1,541,74.52a10.28,10.28,0,0,1,6-1.95,4,4,0,0,1,.74.06v3.55Z" transform="translate(-14.16 -60.76)"/><path class="cls-1" d="M560,103.18a10.46,10.46,0,0,1-3.91-.72,9.83,9.83,0,0,1-3.14-2,8.93,8.93,0,0,1-2.83-6.59,7.39,7.39,0,0,1,.91-3.61,8.72,8.72,0,0,1,2.57-2.87,12.54,12.54,0,0,1,3.94-1.86,18.06,18.06,0,0,1,5-.66,27.37,27.37,0,0,1,4.62.4,20,20,0,0,1,4.17,1.15V83.75a8.69,8.69,0,0,0-2.23-6.28A8.13,8.13,0,0,0,563,75.15a13.06,13.06,0,0,0-4.68.92,22.55,22.55,0,0,0-4.85,2.64l-1.37-2.58q5.76-3.9,11.18-3.9,5.59,0,8.79,3.15t3.2,8.71V97.57a1.34,1.34,0,0,0,1.43,1.6v3.44a9.21,9.21,0,0,1-1.48.17,3.33,3.33,0,0,1-2.31-.75A2.8,2.8,0,0,1,572,100l-0.11-2.35a13.48,13.48,0,0,1-5.16,4.13A15.84,15.84,0,0,1,560,103.18Zm0.91-3a13.35,13.35,0,0,0,5.56-1.15,9.1,9.1,0,0,0,3.85-3,3.57,3.57,0,0,0,.77-1.12,2.85,2.85,0,0,0,.26-1.12V88.91a23.78,23.78,0,0,0-4-1.15,22.46,22.46,0,0,0-4.25-.4,11.79,11.79,0,0,0-6.68,1.72,5.24,5.24,0,0,0-2.57,4.53,6.2,6.2,0,0,0,.54,2.58,6.51,6.51,0,0,0,1.48,2.09,6.92,6.92,0,0,0,2.25,1.4A7.58,7.58,0,0,0,560.91,100.2Z" transform="translate(-14.16 -60.76)"/><path class="cls-1" d="M583.79,60.76h3.88V95.85a3.6,3.6,0,0,0,.91,2.61,3.4,3.4,0,0,0,2.57.95,7.71,7.71,0,0,0,1.48-.17,9.72,9.72,0,0,0,1.6-.46l0.68,3.15a12.7,12.7,0,0,1-2.65.75,15.43,15.43,0,0,1-2.71.29,5.3,5.3,0,0,1-5.76-5.79V60.76Z" transform="translate(-14.16 -60.76)"/><path class="cls-1" d="M599.14,66.49V60.76H603v5.73h-3.88Zm0,36.12V72.74H603v29.87h-3.88Z" transform="translate(-14.16 -60.76)"/><path class="cls-1" d="M619.05,103.18a10.46,10.46,0,0,1-3.91-.72,9.83,9.83,0,0,1-3.14-2,8.93,8.93,0,0,1-2.83-6.59,7.39,7.39,0,0,1,.91-3.61,8.72,8.72,0,0,1,2.57-2.87,12.54,12.54,0,0,1,3.94-1.86,18.06,18.06,0,0,1,5-.66,27.37,27.37,0,0,1,4.62.4,20,20,0,0,1,4.17,1.15V83.75a8.69,8.69,0,0,0-2.23-6.28A8.13,8.13,0,0,0,622,75.15a13.06,13.06,0,0,0-4.68.92,22.55,22.55,0,0,0-4.85,2.64l-1.37-2.58q5.76-3.9,11.18-3.9,5.59,0,8.79,3.15t3.2,8.71V97.57a1.34,1.34,0,0,0,1.43,1.6v3.44a9.21,9.21,0,0,1-1.48.17,3.33,3.33,0,0,1-2.31-.75A2.8,2.8,0,0,1,631,100l-0.11-2.35a13.48,13.48,0,0,1-5.16,4.13A15.84,15.84,0,0,1,619.05,103.18Zm0.91-3a13.35,13.35,0,0,0,5.56-1.15,9.1,9.1,0,0,0,3.85-3,3.57,3.57,0,0,0,.77-1.12,2.85,2.85,0,0,0,.26-1.12V88.91a23.78,23.78,0,0,0-4-1.15,22.46,22.46,0,0,0-4.25-.4,11.79,11.79,0,0,0-6.68,1.72,5.24,5.24,0,0,0-2.57,4.53,6.2,6.2,0,0,0,.54,2.58,6.51,6.51,0,0,0,1.48,2.09,6.92,6.92,0,0,0,2.25,1.4A7.58,7.58,0,0,0,620,100.2Z" transform="translate(-14.16 -60.76)"/><path class="cls-1" d="M667.67,102.61h-3.88V85.93q0-5.33-1.57-7.74a5.35,5.35,0,0,0-4.82-2.41,9.85,9.85,0,0,0-3.42.63,11.56,11.56,0,0,0-3.17,1.78,13.6,13.6,0,0,0-2.6,2.72,10.72,10.72,0,0,0-1.65,3.41v18.29h-3.88V72.74h3.54v6.77a14,14,0,0,1,5.22-5.27,14.27,14.27,0,0,1,7.39-2,8.73,8.73,0,0,1,4.17.92,7.13,7.13,0,0,1,2.74,2.58,11.94,11.94,0,0,1,1.48,4.07,28.77,28.77,0,0,1,.46,5.33v17.49Z" transform="translate(-14.16 -60.76)"/><path class="cls-1" d="M78.06,132.18V175H71.27V156.14H49.77V175H43V132.18h6.73v17.92h21.5V132.18h6.79Z" transform="translate(-14.16 -60.76)"/><path class="cls-1" d="M87.67,175V132.18H94.4V175H87.67Z" transform="translate(-14.16 -60.76)"/><path class="cls-1" d="M129.23,142.26a9.28,9.28,0,0,0-1.74-1.42,17.49,17.49,0,0,0-2.67-1.42,19.48,19.48,0,0,0-3.36-1.09,16.68,16.68,0,0,0-3.75-.42q-4.27,0-6.28,1.57a5.2,5.2,0,0,0-2,4.35,4.72,4.72,0,0,0,.63,2.56,5.41,5.41,0,0,0,2,1.75,15.2,15.2,0,0,0,3.3,1.33q2,0.57,4.63,1.24a53.07,53.07,0,0,1,5.86,1.75,16.69,16.69,0,0,1,4.42,2.35,9.58,9.58,0,0,1,2.79,3.41,11.09,11.09,0,0,1,1,4.92,12,12,0,0,1-1.23,5.61,10.52,10.52,0,0,1-3.36,3.83,14.79,14.79,0,0,1-5,2.17,25.4,25.4,0,0,1-6.07.69A30.11,30.11,0,0,1,109,174a26.85,26.85,0,0,1-8.2-4.31l3.06-5.79a14.25,14.25,0,0,0,2.25,1.75,20.92,20.92,0,0,0,3.42,1.78,29.7,29.7,0,0,0,4.23,1.39,19.37,19.37,0,0,0,4.75.57,11.33,11.33,0,0,0,6.13-1.39,4.56,4.56,0,0,0,2.16-4.1,4.42,4.42,0,0,0-.81-2.72,7,7,0,0,0-2.31-1.9,20.2,20.2,0,0,0-3.66-1.48q-2.16-.66-4.93-1.39a50.78,50.78,0,0,1-5.56-1.78,13.85,13.85,0,0,1-3.93-2.26,8.86,8.86,0,0,1-2.37-3.11,10.36,10.36,0,0,1-.81-4.31,12.49,12.49,0,0,1,1.2-5.58,11.92,11.92,0,0,1,3.27-4.1,14.3,14.3,0,0,1,4.9-2.5,21.29,21.29,0,0,1,6.13-.85,22.39,22.39,0,0,1,8,1.39,26.44,26.44,0,0,1,6.43,3.44Z" transform="translate(-14.16 -60.76)"/><path class="cls-1" d="M171.7,138.16H157.53V175h-6.79V138.16H136.5v-6h35.2v6Z" transform="translate(-14.16 -60.76)"/><path class="cls-1" d="M193.15,175.33a18.62,18.62,0,0,1-8.32-1.84,20.71,20.71,0,0,1-6.46-4.89,22.07,22.07,0,0,1-4.17-7,22.66,22.66,0,0,1-1.47-8,22,22,0,0,1,1.56-8.21,22.8,22.8,0,0,1,4.29-6.94,20.53,20.53,0,0,1,6.49-4.8,18.9,18.9,0,0,1,8.2-1.78,18.15,18.15,0,0,1,8.32,1.9,21,21,0,0,1,6.43,5,22.91,22.91,0,0,1,4.14,7,22.44,22.44,0,0,1-.06,16.14,21.69,21.69,0,0,1-4.29,6.91,21.08,21.08,0,0,1-6.52,4.77A18.74,18.74,0,0,1,193.15,175.33Zm-13.58-21.73a18.1,18.1,0,0,0,1,5.85,15.91,15.91,0,0,0,2.73,5,13.36,13.36,0,0,0,4.29,3.47,12.15,12.15,0,0,0,5.65,1.3,11.8,11.8,0,0,0,5.74-1.36,13.52,13.52,0,0,0,4.23-3.59,16.2,16.2,0,0,0,2.64-5,18.27,18.27,0,0,0,.9-5.67,18,18,0,0,0-1-5.88,15.64,15.64,0,0,0-2.73-4.95,13.68,13.68,0,0,0-4.26-3.44,11.85,11.85,0,0,0-5.56-1.3,12,12,0,0,0-5.77,1.36,13.76,13.76,0,0,0-4.27,3.53,15.85,15.85,0,0,0-2.67,5A18,18,0,0,0,179.57,153.61Z" transform="translate(-14.16 -60.76)"/><path class="cls-1" d="M220.6,175V132.18h18.56a11.8,11.8,0,0,1,5.32,1.21,13.63,13.63,0,0,1,4.17,3.17,15,15,0,0,1,2.73,4.47,13.75,13.75,0,0,1,1,5.1,14.36,14.36,0,0,1-.6,4.16,14.64,14.64,0,0,1-1.68,3.68,11.88,11.88,0,0,1-2.64,2.93,10.86,10.86,0,0,1-3.42,1.84l10,16.29h-7.63l-9.25-14.91h-9.85V175H220.6Zm6.73-20.88H239.1a5.41,5.41,0,0,0,2.61-.63,6.21,6.21,0,0,0,2-1.75A8.89,8.89,0,0,0,245,149.2a9.71,9.71,0,0,0,.48-3.08A8.33,8.33,0,0,0,245,143a8.86,8.86,0,0,0-1.5-2.53,7.13,7.13,0,0,0-2.16-1.72,5.52,5.52,0,0,0-2.55-.63H227.32v16Z" transform="translate(-14.16 -60.76)"/><path class="cls-1" d="M260.3,175V132.18H267V175H260.3Z" transform="translate(-14.16 -60.76)"/><path class="cls-1" d="M273.94,153.3a22.53,22.53,0,0,1,1.38-7.69,21.29,21.29,0,0,1,4.05-6.88,20.48,20.48,0,0,1,6.52-4.92,19.66,19.66,0,0,1,8.71-1.87,18.42,18.42,0,0,1,10,2.6,16.84,16.84,0,0,1,6.25,6.76l-5.29,3.56a12.13,12.13,0,0,0-2.16-3.26,10.58,10.58,0,0,0-2.76-2.11,11.89,11.89,0,0,0-3.12-1.12,15.62,15.62,0,0,0-3.12-.33,12.23,12.23,0,0,0-5.89,1.36,13.08,13.08,0,0,0-4.23,3.59,16.06,16.06,0,0,0-2.58,5,18.45,18.45,0,0,0-.87,5.55,17.48,17.48,0,0,0,1,6,16.18,16.18,0,0,0,2.85,5A14,14,0,0,0,289,168a11.89,11.89,0,0,0,5.53,1.3,13.89,13.89,0,0,0,3.21-.39,12,12,0,0,0,3.18-1.27,12.75,12.75,0,0,0,2.82-2.2,11,11,0,0,0,2.13-3.2l5.59,3.2a13.12,13.12,0,0,1-2.88,4.25,18.42,18.42,0,0,1-4.2,3.11,21.53,21.53,0,0,1-5,1.93,20.81,20.81,0,0,1-5.14.66,17.61,17.61,0,0,1-8.23-1.93,21.6,21.6,0,0,1-6.43-5,23.22,23.22,0,0,1-4.2-7.06A22.51,22.51,0,0,1,273.94,153.3Z" transform="translate(-14.16 -60.76)"/><path class="cls-1" d="M329.68,132.18h5.89L352.38,175h-7.09l-4.51-11.65H324.33L319.89,175h-7.15Zm9.79,26.19L332.62,140l-7.09,18.41h13.94Z" transform="translate(-14.16 -60.76)"/><path class="cls-1" d="M357.67,175V132.18h6.73v36.87h22.89v6H357.67Z" transform="translate(-14.16 -60.76)"/><path class="cls-1" d="M431.19,142.26a9.27,9.27,0,0,0-1.74-1.42,17.44,17.44,0,0,0-2.67-1.42,19.47,19.47,0,0,0-3.36-1.09,16.69,16.69,0,0,0-3.75-.42q-4.27,0-6.28,1.57a5.2,5.2,0,0,0-2,4.35,4.72,4.72,0,0,0,.63,2.56,5.42,5.42,0,0,0,2,1.75,15.22,15.22,0,0,0,3.3,1.33q2,0.57,4.63,1.24a53.07,53.07,0,0,1,5.86,1.75,16.68,16.68,0,0,1,4.42,2.35,9.57,9.57,0,0,1,2.79,3.41,11.09,11.09,0,0,1,1,4.92,12,12,0,0,1-1.23,5.61,10.52,10.52,0,0,1-3.36,3.83,14.79,14.79,0,0,1-5,2.17,25.4,25.4,0,0,1-6.07.69,30.11,30.11,0,0,1-9.4-1.48,26.84,26.84,0,0,1-8.2-4.31l3.06-5.79a14.22,14.22,0,0,0,2.25,1.75,20.94,20.94,0,0,0,3.42,1.78,29.7,29.7,0,0,0,4.24,1.39,19.37,19.37,0,0,0,4.75.57,11.34,11.34,0,0,0,6.13-1.39,4.56,4.56,0,0,0,2.16-4.1,4.42,4.42,0,0,0-.81-2.72,7,7,0,0,0-2.31-1.9,20.21,20.21,0,0,0-3.66-1.48q-2.16-.66-4.93-1.39a50.79,50.79,0,0,1-5.56-1.78,13.84,13.84,0,0,1-3.93-2.26,8.87,8.87,0,0,1-2.37-3.11,10.36,10.36,0,0,1-.81-4.31,12.48,12.48,0,0,1,1.2-5.58,11.92,11.92,0,0,1,3.27-4.1,14.31,14.31,0,0,1,4.9-2.5,21.29,21.29,0,0,1,6.13-.85,22.38,22.38,0,0,1,8,1.39,26.46,26.46,0,0,1,6.43,3.44Z" transform="translate(-14.16 -60.76)"/><path class="cls-1" d="M460.38,175.33a18.62,18.62,0,0,1-8.32-1.84,20.71,20.71,0,0,1-6.46-4.89,22.08,22.08,0,0,1-4.17-7,22.66,22.66,0,0,1-1.47-8,22,22,0,0,1,1.56-8.21,22.79,22.79,0,0,1,4.29-6.94,20.52,20.52,0,0,1,6.49-4.8,18.89,18.89,0,0,1,8.2-1.78,18.15,18.15,0,0,1,8.32,1.9,21,21,0,0,1,6.43,5,22.92,22.92,0,0,1,4.14,7,22.44,22.44,0,0,1-.06,16.14,21.68,21.68,0,0,1-4.29,6.91,21.07,21.07,0,0,1-6.52,4.77A18.75,18.75,0,0,1,460.38,175.33Zm-13.58-21.73a18.09,18.09,0,0,0,1,5.85,15.9,15.9,0,0,0,2.73,5,13.37,13.37,0,0,0,4.29,3.47,12.15,12.15,0,0,0,5.65,1.3,11.8,11.8,0,0,0,5.74-1.36,13.52,13.52,0,0,0,4.23-3.59,16.21,16.21,0,0,0,2.64-5,18.26,18.26,0,0,0,.9-5.67,18,18,0,0,0-1-5.88,15.62,15.62,0,0,0-2.73-4.95,13.68,13.68,0,0,0-4.26-3.44,11.85,11.85,0,0,0-5.56-1.3,12,12,0,0,0-5.77,1.36,13.76,13.76,0,0,0-4.26,3.53,15.83,15.83,0,0,0-2.67,5A18,18,0,0,0,446.81,153.61Z" transform="translate(-14.16 -60.76)"/><path class="cls-1" d="M485.13,153.3a22.53,22.53,0,0,1,1.38-7.69,21.3,21.3,0,0,1,4.05-6.88,20.47,20.47,0,0,1,6.52-4.92,19.66,19.66,0,0,1,8.71-1.87,18.42,18.42,0,0,1,10,2.6,16.84,16.84,0,0,1,6.25,6.76l-5.29,3.56a12.13,12.13,0,0,0-2.16-3.26,10.57,10.57,0,0,0-2.76-2.11,11.88,11.88,0,0,0-3.12-1.12,15.62,15.62,0,0,0-3.12-.33,12.23,12.23,0,0,0-5.89,1.36,13.09,13.09,0,0,0-4.24,3.59,16.07,16.07,0,0,0-2.58,5,18.45,18.45,0,0,0-.87,5.55,17.5,17.5,0,0,0,1,6,16.21,16.21,0,0,0,2.85,5,14,14,0,0,0,4.35,3.47,11.89,11.89,0,0,0,5.53,1.3,13.88,13.88,0,0,0,3.21-.39,12,12,0,0,0,3.18-1.27,12.78,12.78,0,0,0,2.82-2.2,11,11,0,0,0,2.13-3.2l5.59,3.2a13.12,13.12,0,0,1-2.88,4.25,18.41,18.41,0,0,1-4.2,3.11,21.55,21.55,0,0,1-5,1.93,20.82,20.82,0,0,1-5.14.66,17.61,17.61,0,0,1-8.23-1.93,21.59,21.59,0,0,1-6.43-5,23.23,23.23,0,0,1-4.21-7.06A22.52,22.52,0,0,1,485.13,153.3Z" transform="translate(-14.16 -60.76)"/><path class="cls-1" d="M528.92,175V132.18h6.73V175h-6.73Z" transform="translate(-14.16 -60.76)"/><path class="cls-1" d="M574.51,169.05v6H545.25V132.18H574v6H552v12.19h19V156H552v13.1h22.52Z" transform="translate(-14.16 -60.76)"/><path class="cls-1" d="M612.77,138.16H598.59V175h-6.79V138.16H577.57v-6h35.2v6Z" transform="translate(-14.16 -60.76)"/><path class="cls-1" d="M621.6,132.18l11.77,21.48,11.89-21.48h7.39L636.74,159.7V175H630V159.58l-15.8-27.4h7.39Z" transform="translate(-14.16 -60.76)"/><path class="cls-1" d="M194.87,222.86v-2.31h14.42v2.31H194.87Z" transform="translate(-14.16 -60.76)"/><path class="cls-1" d="M216,222.86v-2.31h14.42v2.31H216Z" transform="translate(-14.16 -60.76)"/><path class="cls-1" d="M261.6,235.88a12.09,12.09,0,0,1-5.11-1.08,12.6,12.6,0,0,1-4.08-3,14,14,0,0,1-2.7-4.35,14.2,14.2,0,0,1-1-5.28,13.88,13.88,0,0,1,1-5.21,13.71,13.71,0,0,1,2.68-4.27,12.45,12.45,0,0,1,4-2.89,12.56,12.56,0,0,1,10.14,0,12.7,12.7,0,0,1,4.05,2.92,13.37,13.37,0,0,1,2.65,4.27,14.07,14.07,0,0,1,1,5.15v0.63a1.39,1.39,0,0,1,0,.48H251.34a11.7,11.7,0,0,0,1.05,4.2,11.91,11.91,0,0,0,2.28,3.34,10.22,10.22,0,0,0,3.18,2.21,9.33,9.33,0,0,0,3.85.8,9.47,9.47,0,0,0,2.65-.38,10.86,10.86,0,0,0,2.43-1,8.77,8.77,0,0,0,2-1.58,7.43,7.43,0,0,0,1.38-2l2.2,0.6a8.34,8.34,0,0,1-1.63,2.59,11,11,0,0,1-2.5,2,12.72,12.72,0,0,1-3.13,1.33A12.91,12.91,0,0,1,261.6,235.88Zm10.21-14.58a11.91,11.91,0,0,0-1-4.22,11.31,11.31,0,0,0-2.25-3.29,10.13,10.13,0,0,0-3.18-2.16,9.92,9.92,0,0,0-7.71,0,10.12,10.12,0,0,0-3.18,2.16,10.46,10.46,0,0,0-2.2,3.32,12.77,12.77,0,0,0-1,4.2h20.52Z" transform="translate(-14.16 -60.76)"/><path class="cls-1" d="M288,235.88a16.65,16.65,0,0,1-5.76-1,13.28,13.28,0,0,1-4.81-3l1.25-1.71A14.63,14.63,0,0,0,283,233a13.17,13.17,0,0,0,5,.91,9.47,9.47,0,0,0,5.48-1.43,4.59,4.59,0,0,0,2.08-4,3.73,3.73,0,0,0-.53-2,4.22,4.22,0,0,0-1.58-1.41,13,13,0,0,0-2.6-1q-1.55-.45-3.6-1-2.2-.5-3.83-1a10.18,10.18,0,0,1-2.68-1.21,4.64,4.64,0,0,1-1.58-1.71,5.52,5.52,0,0,1-.53-2.56,7.38,7.38,0,0,1,.75-3.42,6.73,6.73,0,0,1,2.08-2.41,9.53,9.53,0,0,1,3.05-1.43,13.75,13.75,0,0,1,3.68-.48,13.39,13.39,0,0,1,5.41,1,9.49,9.49,0,0,1,3.65,2.64l-1.4,1.36a7.94,7.94,0,0,0-3.38-2.26,12.88,12.88,0,0,0-4.43-.75,11.83,11.83,0,0,0-2.73.3,6.55,6.55,0,0,0-2.23,1,4.7,4.7,0,0,0-1.5,1.69,5.1,5.1,0,0,0-.55,2.44,4,4,0,0,0,.38,1.86,3.18,3.18,0,0,0,1.2,1.21,8.85,8.85,0,0,0,2.13.88q1.3,0.38,3.1.83,2.45,0.6,4.35,1.16a12.58,12.58,0,0,1,3.18,1.36,6,6,0,0,1,2,1.91,5.33,5.33,0,0,1,.68,2.82,6.7,6.7,0,0,1-2.73,5.61A11.69,11.69,0,0,1,288,235.88Z" transform="translate(-14.16 -60.76)"/><path class="cls-1" d="M315.41,234.12l-0.68.38a6.89,6.89,0,0,1-1.2.53,14.75,14.75,0,0,1-1.63.45,9,9,0,0,1-2,.2,6.34,6.34,0,0,1-2-.3,4.69,4.69,0,0,1-1.63-.91,4.29,4.29,0,0,1-1.1-1.46,4.68,4.68,0,0,1-.4-2V211.29h-3.65v-2.06h3.65v-9h2.5v9h6.06v2.06h-6.06V230.4a2.53,2.53,0,0,0,1,2.19,3.73,3.73,0,0,0,2.25.73,6.25,6.25,0,0,0,2.68-.53q1.13-.53,1.38-0.68Z" transform="translate(-14.16 -60.76)"/><path class="cls-1" d="M319.26,235.38V231.1h2.2v4.27h-2.2Z" transform="translate(-14.16 -60.76)"/><path class="cls-1" d="M357,233.06v2.31H341v-2.31h7.11V209.83a6.78,6.78,0,0,1-1.4,1.31,16.37,16.37,0,0,1-2.15,1.33,17.4,17.4,0,0,1-2.45,1.06,7,7,0,0,1-2.25.43v-2.51a6.11,6.11,0,0,0,2.65-.68,19.18,19.18,0,0,0,2.63-1.53,17.78,17.78,0,0,0,2.05-1.63,10.46,10.46,0,0,0,.93-0.93h2.5v26.4H357Z" transform="translate(-14.16 -60.76)"/><path class="cls-1" d="M359.9,218.88a11.92,11.92,0,0,1,3.6-8.65,12.75,12.75,0,0,1,4-2.62,13.14,13.14,0,0,1,10,.05,11.75,11.75,0,0,1,4,2.87,13.1,13.1,0,0,1,2.65,4.58,18.33,18.33,0,0,1,1,6.08,43.88,43.88,0,0,1-1,9.76,22.31,22.31,0,0,1-2.65,6.84,11.28,11.28,0,0,1-4.08,4,10.68,10.68,0,0,1-5.23,1.31,11.08,11.08,0,0,1-10.51-6.94l1.75-1.36a9,9,0,0,0,3.4,4.38,9.21,9.21,0,0,0,5.36,1.66,8.3,8.3,0,0,0,4.28-1.13,9.58,9.58,0,0,0,3.28-3.32,18.56,18.56,0,0,0,2.13-5.36,30.6,30.6,0,0,0,.78-7.24,9.85,9.85,0,0,1-1.6,2.94,11.29,11.29,0,0,1-8.91,4.3,11.82,11.82,0,0,1-4.75-1,12.25,12.25,0,0,1-6.46-6.49A11.82,11.82,0,0,1,359.9,218.88Zm12.41-10a9.78,9.78,0,0,0-3.88.78,9.93,9.93,0,0,0-3.18,2.14,10.42,10.42,0,0,0-2.15,3.17,9.76,9.76,0,0,0,0,7.75,10.44,10.44,0,0,0,2.15,3.17,10.29,10.29,0,0,0,3.18,2.16,9.75,9.75,0,0,0,7.76,0,10.3,10.3,0,0,0,3.18-2.16,10.45,10.45,0,0,0,2.15-3.17,9.47,9.47,0,0,0,.8-3.87,9.36,9.36,0,0,0-.8-3.82,10.42,10.42,0,0,0-2.15-3.17,10.27,10.27,0,0,0-3.18-2.16A9.51,9.51,0,0,0,372.32,208.93Z" transform="translate(-14.16 -60.76)"/><path class="cls-1" d="M389.49,235.38a22.06,22.06,0,0,1,.25-3.14,11.79,11.79,0,0,1,1.13-3.52,13.23,13.23,0,0,1,2.55-3.47,16.28,16.28,0,0,1,4.48-3q1.4-.7,3-1.41a17.88,17.88,0,0,0,3-1.63,9.49,9.49,0,0,0,2.25-2.14,4.74,4.74,0,0,0,.9-2.92,4.89,4.89,0,0,0-.45-2,5.54,5.54,0,0,0-1.33-1.81A6.72,6.72,0,0,0,403,209a10.06,10.06,0,0,0-6.28,0,10.7,10.7,0,0,0-2.4,1.21,10.93,10.93,0,0,0-1.7,1.41,13.32,13.32,0,0,0-1,1.11l-1.7-1.76,1-1a12.21,12.21,0,0,1,2.08-1.61,16.52,16.52,0,0,1,3.13-1.51,11.63,11.63,0,0,1,4.08-.68,12.06,12.06,0,0,1,4,.63,9.07,9.07,0,0,1,3,1.71,7.13,7.13,0,0,1,1.85,2.51,7.41,7.41,0,0,1,.63,3,6.31,6.31,0,0,1-1,3.57,11.14,11.14,0,0,1-2.45,2.64,16.53,16.53,0,0,1-3,1.89q-1.58.75-2.73,1.26a16.84,16.84,0,0,0-6,3.95,8.62,8.62,0,0,0-2.18,5.76h17.92v2.31H389.49Z" transform="translate(-14.16 -60.76)"/><path class="cls-1" d="M440.49,223.66a11.92,11.92,0,0,1-3.6,8.65,12.67,12.67,0,0,1-4,2.62,12.5,12.5,0,0,1-4.88,1,12.68,12.68,0,0,1-5.08-1,11.41,11.41,0,0,1-4-2.87,13.33,13.33,0,0,1-2.63-4.55,18.25,18.25,0,0,1-1-6.11,43.84,43.84,0,0,1,1-9.76,22.29,22.29,0,0,1,2.65-6.84,11.26,11.26,0,0,1,4.08-4,10.67,10.67,0,0,1,5.23-1.31,11.08,11.08,0,0,1,10.51,6.94L437,207.72a9,9,0,0,0-3.4-4.38,9.21,9.21,0,0,0-5.36-1.66,8.3,8.3,0,0,0-4.28,1.13,9.58,9.58,0,0,0-3.28,3.32,18.55,18.55,0,0,0-2.13,5.36,30.55,30.55,0,0,0-.78,7.24,9.87,9.87,0,0,1,1.6-2.94,11.29,11.29,0,0,1,8.91-4.3,11.82,11.82,0,0,1,4.75,1,12.25,12.25,0,0,1,6.46,6.49A11.84,11.84,0,0,1,440.49,223.66Zm-12.41,10a9.77,9.77,0,0,0,3.88-.78,10,10,0,0,0,3.18-2.14,10.44,10.44,0,0,0,2.15-3.17,9.76,9.76,0,0,0,0-7.75,10.45,10.45,0,0,0-2.15-3.17,10.32,10.32,0,0,0-3.18-2.16,9.75,9.75,0,0,0-7.76,0,10.31,10.31,0,0,0-3.18,2.16,10.44,10.44,0,0,0-2.15,3.17,9.76,9.76,0,0,0,0,7.75A10.42,10.42,0,0,0,421,230.7a9.94,9.94,0,0,0,3.18,2.14A9.76,9.76,0,0,0,428.08,233.62Z" transform="translate(-14.16 -60.76)"/><path class="cls-1" d="M458.91,222.86v-2.31h14.42v2.31H458.91Z" transform="translate(-14.16 -60.76)"/><path class="cls-1" d="M480,222.86v-2.31h14.42v2.31H480Z" transform="translate(-14.16 -60.76)"/><rect class="cls-2" x="2.5" y="54.24" width="656" height="77"/></svg>